<svg xmlns="http://www.w3.org/2000/svg"  viewBox="0 0 80 80" width="160px" height="160px"><path fill="#f76d6d" d="M57.957,47.608c-0.015-2.868-0.504-12.988-6.386-19.086C48.607,25.45,44.714,23.892,40,23.892 s-8.607,1.559-11.571,4.631c-5.882,6.098-6.371,16.218-6.386,19.086l-10.269-4.143c-0.013-0.012-0.026-0.024-0.041-0.037 c-1.844-1.671-6.132-6.165-6.132-11.793C5.602,23.891,17.429,1.5,40,1.5s34.398,22.391,34.398,30.136 c0,5.628-4.288,10.122-6.132,11.793c-0.015,0.013-0.028,0.025-0.041,0.037L57.957,47.608z"/><path fill="#ab3434" d="M40,2c22.243,0,33.898,22.019,33.898,29.636c0,5.403-4.136,9.757-5.943,11.4l-9.511,3.837 c-0.104-3.637-0.937-12.917-6.513-18.697c-3.062-3.174-7.076-4.784-11.931-4.784s-8.869,1.61-11.931,4.784 c-5.576,5.78-6.409,15.06-6.513,18.697l-9.511-3.837c-1.808-1.644-5.943-5.997-5.943-11.4C6.102,24.019,17.757,2,40,2 M40,1 C17.348,1,5.102,23.485,5.102,31.636c0,6.912,6.263,12.101,6.399,12.259l11.05,4.458c0,0-0.863-23.961,17.449-23.961 s17.449,23.961,17.449,23.961l11.05-4.458c0.136-0.158,6.399-5.347,6.399-12.259C74.898,23.485,62.652,1,40,1L40,1z"/><path fill="#deb974" d="M15.645,60.029C10.62,60.029,5.5,53.688,5.5,47.465c0-4.572,2.961-6.965,5.887-6.965 c2.427,0,6.267,1.035,9.1,3.954l0.415,0.421l-1.521,14.769l-1.114,0.265c-0.483,0.106-1.168,0.12-1.71,0.12H15.645z"/><path fill="#967a44" d="M11.387,41c2.33,0,6.017,0.996,8.746,3.807l0.247,0.251l-1.46,14.181l-0.752,0.179 c-0.45,0.099-1.135,0.11-1.61,0.11h-0.912C10.957,59.528,6,53.328,6,47.465C6,43.221,8.71,41,11.387,41 M11.387,40 C8.224,40,5,42.559,5,47.465c0,6.372,5.261,13.064,10.644,13.064h0.912c0.699,0,1.338-0.027,1.825-0.133l1.46-0.347l1.581-15.356 l-0.578-0.587C17.895,41.066,13.911,40,11.387,40L11.387,40z"/><path fill="#deb974" d="M63.443,60.029c-0.542,0-1.227-0.014-1.718-0.122l-1.106-0.263l-1.521-14.769l0.413-0.419 c2.835-2.921,6.675-3.956,9.102-3.956c2.926,0,5.887,2.393,5.887,6.965c0,6.223-5.12,12.563-10.145,12.563H63.443z"/><path fill="#967a44" d="M68.613,41C71.29,41,74,43.221,74,47.465c0,5.863-4.957,12.064-9.644,12.064h-0.912 c-0.476,0-1.16-0.011-1.594-0.106l-0.769-0.182l-1.46-14.181l0.252-0.256C62.596,41.996,66.284,41,68.613,41 M68.613,40 c-2.524,0-6.508,1.066-9.458,4.106l-0.578,0.587l1.581,15.356l1.46,0.347c0.487,0.107,1.125,0.133,1.825,0.133h0.912 C69.739,60.528,75,53.837,75,47.465C75,42.559,71.776,40,68.613,40L68.613,40z"/><path fill="#967a44" d="M66 46h-8c-1.65 0-3 1.35-3 3v0c0 1.65 1.35 3 3 3h8c1.65 0 3-1.35 3-3v0C69 47.35 67.65 46 66 46zM22 46h-8c-1.65 0-3 1.35-3 3v0c0 1.65 1.35 3 3 3h8c1.65 0 3-1.35 3-3v0C25 47.35 23.65 46 22 46z"/><path fill="#f5ce85" d="M40,78.5c-5.58,0-8.313-1.455-10.955-2.861l-0.097-0.052c-0.697-0.371-1.419-0.755-2.234-1.131 c-0.458-0.212-1.012-0.431-1.626-0.67C23.699,73.237,11.5,68.09,11.5,56.818c0-3.73,1.683-6.63,3.035-8.96 c0.341-0.589,0.656-1.132,0.91-1.632L15.5,46.12V35.16c0.704-0.928,6.309-7.445,24.5-7.446c18.191,0.001,23.796,6.519,24.5,7.446 v10.96l0.055,0.106c0.254,0.5,0.569,1.043,0.91,1.632c1.353,2.33,3.035,5.229,3.035,8.96c0,11.271-12.199,16.419-13.59,16.969 c-0.612,0.238-1.166,0.457-1.625,0.669c-0.814,0.376-1.536,0.76-2.233,1.131l-0.09,0.048C48.312,77.045,45.58,78.5,40,78.5z"/><path fill="#967a44" d="M40,28.214L40,28.214c17.31,0,23.033,5.936,24,7.118V46v0.24l0.109,0.214 c0.263,0.517,0.584,1.071,0.925,1.657C66.355,50.388,68,53.222,68,56.818c0,10.941-11.915,15.967-13.269,16.502 c-0.627,0.244-1.184,0.464-1.652,0.682c-0.818,0.376-1.538,0.758-2.234,1.128l-0.12,0.064C48.016,76.637,45.458,78,40,78 c-5.458,0-8.016-1.363-10.727-2.807l-0.118-0.063c-0.696-0.37-1.415-0.752-2.23-1.127c-0.472-0.219-1.029-0.439-1.651-0.681 C23.915,72.785,12,67.759,12,56.818c0-3.596,1.645-6.43,2.967-8.708c0.34-0.586,0.661-1.14,0.925-1.657L16,46.24V46V35.327 C16.954,34.131,22.564,28.215,40,28.214 M40,27.214C19.93,27.215,15,35,15,35c0,2.719,0,9.674,0,11c-1.252,2.46-4,5.985-4,10.818 c0,10.046,9.583,15.725,13.906,17.434c0.603,0.235,1.148,0.449,1.598,0.658c0.838,0.385,1.579,0.782,2.3,1.165 C31.502,77.513,34.291,79,40,79c5.709,0,8.498-1.487,11.196-2.924c0.721-0.383,1.462-0.78,2.3-1.165 c0.45-0.209,0.995-0.423,1.598-0.658C59.417,72.543,69,66.865,69,56.818c0-4.833-2.748-8.359-4-10.818c0-1.326,0-8.281,0-11 C65,35,60.07,27.215,40,27.214L40,27.214z"/><path fill="#4d3e40" d="M35.819,59.587c-1.163,0-2.243,0.354-3.138,0.961c-0.164-0.469-0.414-0.892-0.688-1.296	c-6.628-0.681-11.224-2.82-12.464-5.252C19.169,54.784,19,56.108,19,56.784c0,2.454,1.19,4.517,2.836,5.277	c-0.007,0.111-0.033,0.217-0.033,0.33c0,3.096,2.51,5.606,5.606,5.606c1.163,0,2.243-0.354,3.138-0.961	c0.765,2.186,2.824,3.764,5.271,3.764c3.096,0,5.606-2.51,5.606-5.606C41.425,62.097,38.915,59.587,35.819,59.587z"/><path fill="#fff" d="M40 8c5.523 0 10 4.477 10 10 0 5.523-4.477 10-10 10V8zM40 8c-5.523 0-10 4.477-10 10 0 5.523 4.477 10 10 10V8z"/><path fill="#f76d6d" d="M40 14.079L43 11c0 0 5.276 9.377 5.211 9.558-.067.18-3.059.962-3.059.962l-2.454-7.433L40 17 40 14.079zM40 14.079L37 11c0 0-5.276 9.377-5.211 9.558.067.18 3.059.962 3.059.962l2.454-7.433L40 17 40 14.079z"/><path fill="#4d3e40" d="M28.8,38c3.162,0,7.2,2,7.2,2s-3.115-6-7.2-6c-3.586,0-4.8,6-4.8,6S26.391,38,28.8,38z"/><path fill="#fff" d="M48,40c2.21,0,4,2.238,4,5s-1.79,5-4,5s-4-2.238-4-5S45.79,40,48,40z"/><path fill="#4e7ab5" d="M47.5,43c1.38,0,2.5,1.566,2.5,3.5S48.88,50,47.5,50S45,48.434,45,46.5S46.12,43,47.5,43z"/><path fill="#36404d" d="M47.5,45c0.828,0,1.5,1.12,1.5,2.5S48.328,50,47.5,50S46,48.88,46,47.5S46.672,45,47.5,45z"/><path fill="#fff" d="M36,45c0,2.762-1.79,5-4,5s-4-2.238-4-5s1.79-5,4-5S36,42.238,36,45z"/><path fill="#4e7ab5" d="M35,46.5c0,1.934-1.12,3.5-2.5,3.5c-1.38,0-2.5-1.566-2.5-3.5s1.12-3.5,2.5-3.5	C33.88,43,35,44.566,35,46.5z"/><path fill="#36404d" d="M34,47.5c0,1.38-0.672,2.5-1.5,2.5c-0.828,0-1.5-1.12-1.5-2.5s0.672-2.5,1.5-2.5	C33.328,45,34,46.12,34,47.5z"/><path fill="#4d3e40" d="M44.181 59.587c1.163 0 2.243.354 3.138.961.164-.469.414-.892.688-1.296 6.628-.681 11.224-2.82 12.464-5.252C60.831 54.784 61 56.108 61 56.784c0 2.454-1.19 4.517-2.836 5.277.007.111.033.217.033.33 0 3.096-2.51 5.606-5.606 5.606-1.163 0-2.243-.354-3.138-.961-.765 2.186-2.824 3.764-5.271 3.764-3.096 0-5.606-2.51-5.606-5.606C38.575 62.097 41.085 59.587 44.181 59.587zM59 30.55v11.368c.703.357 3.5 2.582 6 6.082 0-3.233 0-17.45 0-17.45H59zM21 30.55v11.368C20.297 42.276 17.5 44.5 15 48c0-3.233 0-17.45 0-17.45H21z"/><g><path fill="#4d3e40" d="M51.2,38c-3.162,0-7.2,2-7.2,2s3.115-6,7.2-6c3.586,0,4.8,6,4.8,6S53.609,38,51.2,38z"/></g><g><path fill="#fff7d1" d="M40,64.5c-5.238,0-9.5-3.813-9.5-8.5s4.262-8.5,9.5-8.5s9.5,3.813,9.5,8.5S45.238,64.5,40,64.5z"/><path fill="#ba9b48" d="M40,48c4.963,0,9,3.589,9,8s-4.037,8-9,8s-9-3.589-9-8S35.037,48,40,48 M40,47 c-5.515,0-10,4.037-10,9s4.485,9,10,9s10-4.037,10-9S45.515,47,40,47L40,47z"/></g><g><path fill="#ffcaca" d="M65,41.5c-0.958,0-2.314-1.869-2.825-2.572l-0.07-0.097C61.09,37.439,55.259,30.5,40,30.5 s-21.09,6.939-22.104,8.33l-0.07,0.098C17.314,39.631,15.958,41.5,15,41.5c-1.218,0-2.272-0.732-3.42-2.374 c-0.062-0.073-2.08-2.332-2.08-5.751C9.5,31.961,16.138,19.5,40,19.5s30.5,12.461,30.5,13.875c0,3.437-2.018,5.677-2.038,5.699 C67.272,40.768,66.218,41.5,65,41.5z"/><path fill="#ab3434" d="M40,20L40,20c22.998,0,29.9,11.794,30,13.375c0,3.21-1.891,5.343-1.907,5.362l-0.045,0.049 l-0.038,0.054C66.671,40.754,65.698,41,65,41c-0.32,0-1-0.41-2.419-2.363l-0.073-0.101C61.47,37.111,55.504,30,40,30 c-15.504,0-21.47,7.111-22.508,8.536l-0.073,0.101C16,40.59,15.32,41,15,41c-0.698,0-1.671-0.246-3.011-2.161l-0.038-0.054 L11.91,38.74C11.891,38.718,10,36.585,10,33.383C10.1,31.794,17.002,20,40,20 M40,19C16.113,19,9,31.485,9,33.375 c0,3.671,2.17,6.037,2.17,6.037C12.359,41.112,13.559,42,15,42c1.258,0,2.678-2.021,3.3-2.875C19.397,37.619,25.128,31,40,31 c14.872,0,20.603,6.619,21.7,8.125C62.322,39.979,63.742,42,65,42c1.441,0,2.641-0.888,3.83-2.588c0,0,2.17-2.367,2.17-6.037 C71,31.485,63.887,19,40,19L40,19z"/></g></svg>