<svg xmlns="http://www.w3.org/2000/svg"  viewBox="0 0 100 100" width="150px" height="150px"><path fill="#c7ede6" d="M87.215,56.71C88.35,54.555,89,52.105,89,49.5c0-6.621-4.159-12.257-10.001-14.478 C78.999,35.015,79,35.008,79,35c0-11.598-9.402-21-21-21c-9.784,0-17.981,6.701-20.313,15.757C36.211,29.272,34.638,29,33,29 c-7.692,0-14.023,5.793-14.89,13.252C12.906,43.353,9,47.969,9,53.5C9,59.851,14.149,65,20.5,65c0.177,0,0.352-0.012,0.526-0.022 C21.022,65.153,21,65.324,21,65.5C21,76.822,30.178,86,41.5,86c6.437,0,12.175-2.972,15.934-7.614C59.612,80.611,62.64,82,66,82 c4.65,0,8.674-2.65,10.666-6.518C77.718,75.817,78.837,76,80,76c6.075,0,11-4.925,11-11C91,61.689,89.53,58.727,87.215,56.71z"/><path fill="#fdfcef" d="M37.5,39.5V40h3v-0.5c0,0,4.242,0,5.5,0c2.485,0,4.5-2.015,4.5-4.5 c0-2.333-1.782-4.229-4.055-4.455C46.467,30.364,46.5,30.187,46.5,30c0-2.485-2.015-4.5-4.5-4.5c-1.438,0-2.703,0.686-3.527,1.736 C38.333,24.6,36.171,22.5,33.5,22.5c-2.761,0-5,2.239-5,5c0,0.446,0.077,0.87,0.187,1.282C28.045,28.005,27.086,27.5,26,27.5 c-1.781,0-3.234,1.335-3.455,3.055C22.364,30.533,22.187,30.5,22,30.5c-2.485,0-4.5,2.015-4.5,4.5s2.015,4.5,4.5,4.5s9.5,0,9.5,0 H37.5z"/><path fill="#472b29" d="M33.5,22c-3.033,0-5.5,2.467-5.5,5.5c0,0.016,0,0.031,0,0.047C27.398,27.192,26.71,27,26,27 c-1.831,0-3.411,1.261-3.858,3.005C22.095,30.002,22.048,30,22,30c-2.757,0-5,2.243-5,5s2.243,5,5,5h15.5 c0.276,0,0.5-0.224,0.5-0.5S37.776,39,37.5,39H22c-2.206,0-4-1.794-4-4s1.794-4,4-4c0.117,0,0.23,0.017,0.343,0.032l0.141,0.019 c0.021,0.003,0.041,0.004,0.062,0.004c0.246,0,0.462-0.185,0.495-0.437C23.232,29.125,24.504,28,26,28 c0.885,0,1.723,0.401,2.301,1.1c0.098,0.118,0.241,0.182,0.386,0.182c0.078,0,0.156-0.018,0.228-0.056 c0.209-0.107,0.314-0.346,0.254-0.573C29.054,28.218,29,27.852,29,27.5c0-2.481,2.019-4.5,4.5-4.5 c2.381,0,4.347,1.872,4.474,4.263c0.011,0.208,0.15,0.387,0.349,0.45c0.05,0.016,0.101,0.024,0.152,0.024 c0.15,0,0.296-0.069,0.392-0.192C39.638,26.563,40.779,26,42,26c2.206,0,4,1.794,4,4c0,0.117-0.017,0.23-0.032,0.343l-0.019,0.141 c-0.016,0.134,0.022,0.268,0.106,0.373c0.084,0.105,0.207,0.172,0.34,0.185C48.451,31.247,50,32.949,50,35c0,2.206-1.794,4-4,4 h-5.5c-0.276,0-0.5,0.224-0.5,0.5s0.224,0.5,0.5,0.5H46c2.757,0,5-2.243,5-5c0-2.397-1.689-4.413-4.003-4.877 C46.999,30.082,47,30.041,47,30c0-2.757-2.243-5-5-5c-1.176,0-2.293,0.416-3.183,1.164C38.219,23.76,36.055,22,33.5,22L33.5,22z"/><path fill="#472b29" d="M32 29c-1.403 0-2.609.999-2.913 2.341C28.72 31.119 28.301 31 27.875 31c-1.202 0-2.198.897-2.353 2.068C25.319 33.022 25.126 33 24.937 33c-1.529 0-2.811 1.2-2.918 2.732C22.01 35.87 22.114 35.99 22.251 36c.006 0 .012 0 .018 0 .13 0 .24-.101.249-.232.089-1.271 1.151-2.268 2.419-2.268.229 0 .47.042.738.127.022.007.045.01.067.01.055 0 .11-.02.156-.054C25.962 33.537 26 33.455 26 33.375c0-1.034.841-1.875 1.875-1.875.447 0 .885.168 1.231.473.047.041.106.063.165.063.032 0 .063-.006.093-.019.088-.035.148-.117.155-.212C29.623 30.512 30.712 29.5 32 29.5c.208 0 .425.034.682.107.023.007.047.01.07.01.109 0 .207-.073.239-.182.038-.133-.039-.271-.172-.309C32.517 29.04 32.256 29 32 29L32 29zM45.883 30.5c-1.326 0-2.508.897-2.874 2.182-.038.133.039.271.172.309C43.205 32.997 43.228 33 43.25 33c.109 0 .209-.072.24-.182C43.795 31.748 44.779 31 45.883 31c.117 0 .23.014.342.029.012.002.023.003.035.003.121 0 .229-.092.246-.217.019-.137-.077-.263-.214-.281C46.158 30.516 46.022 30.5 45.883 30.5L45.883 30.5z"/><path fill="#fff" d="M17.5 59h-10C7.224 59 7 58.776 7 58.5S7.224 58 7.5 58h10c.276 0 .5.224.5.5S17.777 59 17.5 59zM20.5 59h-1c-.276 0-.5-.224-.5-.5s.224-.5.5-.5h1c.276 0 .5.224.5.5S20.777 59 20.5 59zM25.491 61H16.5c-.276 0-.5-.224-.5-.5s.224-.5.5-.5h8.991c.276 0 .5.224.5.5S25.767 61 25.491 61zM14.5 61h-1c-.276 0-.5-.224-.5-.5s.224-.5.5-.5h1c.276 0 .5.224.5.5S14.777 61 14.5 61zM11.5 61h-2C9.224 61 9 60.776 9 60.5S9.224 60 9.5 60h2c.276 0 .5.224.5.5S11.777 61 11.5 61zM17.5 63h-2c-.276 0-.5-.224-.5-.5s.224-.5.5-.5h2c.276 0 .5.224.5.5S17.776 63 17.5 63zM20.5 54c-.177 0-.823 0-1 0-.276 0-.5.224-.5.5 0 .276.224.5.5.5.177 0 .823 0 1 0 .276 0 .5-.224.5-.5C21 54.224 20.776 54 20.5 54zM20.5 56c-.177 0-4.823 0-5 0-.276 0-.5.224-.5.5 0 .276.224.5.5.5.177 0 4.823 0 5 0 .276 0 .5-.224.5-.5C21 56.224 20.776 56 20.5 56zM25.5 58c-.177 0-2.823 0-3 0-.276 0-.5.224-.5.5 0 .276.224.5.5.5.177 0 2.823 0 3 0 .276 0 .5-.224.5-.5C26 58.224 25.776 58 25.5 58z"/><g><path fill="#fff" d="M84.5 48h-10c-.276 0-.5-.224-.5-.5s.224-.5.5-.5h10c.276 0 .5.224.5.5S84.776 48 84.5 48zM88.5 48h-2c-.276 0-.5-.224-.5-.5s.224-.5.5-.5h2c.276 0 .5.224.5.5S88.776 48 88.5 48zM93.5 50h-10c-.276 0-.5-.224-.5-.5s.224-.5.5-.5h10c.276 0 .5.224.5.5S93.777 50 93.5 50zM81.5 50h-1c-.276 0-.5-.224-.5-.5s.224-.5.5-.5h1c.276 0 .5.224.5.5S81.776 50 81.5 50zM78.47 50H76.5c-.276 0-.5-.224-.5-.5s.224-.5.5-.5h1.97c.276 0 .5.224.5.5S78.746 50 78.47 50zM87.5 46h-5c-.276 0-.5-.224-.5-.5s.224-.5.5-.5h5c.276 0 .5.224.5.5S87.777 46 87.5 46zM84.5 52h-2c-.276 0-.5-.224-.5-.5s.224-.5.5-.5h2c.276 0 .5.224.5.5S84.776 52 84.5 52z"/></g><g><path fill="#fdfcef" d="M81.5,78.5c0,0,1.567,0,3.5,0s3.5-1.567,3.5-3.5c0-1.781-1.335-3.234-3.055-3.455 C85.473,71.366,85.5,71.187,85.5,71c0-1.933-1.567-3.5-3.5-3.5c-1.032,0-1.95,0.455-2.59,1.165 c-0.384-1.808-1.987-3.165-3.91-3.165c-2.209,0-4,1.791-4,4c0,0.191,0.03,0.374,0.056,0.558C71.128,69.714,70.592,69.5,70,69.5 c-1.228,0-2.245,0.887-2.455,2.055C67.366,71.527,67.187,71.5,67,71.5c-1.933,0-3.5,1.567-3.5,3.5s1.567,3.5,3.5,3.5s7.5,0,7.5,0 V79h7V78.5z"/><path fill="#472b29" d="M83.25 74C83.112 74 83 73.888 83 73.75c0-1.223.995-2.218 2.218-2.218.034.009.737-.001 1.244.136.133.036.212.173.176.306-.036.134-.173.213-.306.176-.444-.12-1.1-.12-1.113-.118-.948 0-1.719.771-1.719 1.718C83.5 73.888 83.388 74 83.25 74zM76.5 78A.5.5 0 1 0 76.5 79 .5.5 0 1 0 76.5 78z"/><path fill="#472b29" d="M85,79h-3.5c-0.276,0-0.5-0.224-0.5-0.5s0.224-0.5,0.5-0.5H85c1.654,0,3-1.346,3-3 c0-1.496-1.125-2.768-2.618-2.959c-0.134-0.018-0.255-0.088-0.336-0.196s-0.115-0.244-0.094-0.377C84.975,71.314,85,71.16,85,71 c0-1.654-1.346-3-3-3c-0.85,0-1.638,0.355-2.219,1c-0.125,0.139-0.321,0.198-0.5,0.148c-0.182-0.049-0.321-0.195-0.36-0.379 C78.58,67.165,77.141,66,75.5,66c-1.93,0-3.5,1.57-3.5,3.5c0,0.143,0.021,0.28,0.041,0.418c0.029,0.203-0.063,0.438-0.242,0.54 c-0.179,0.102-0.396,0.118-0.556-0.01C70.878,70.155,70.449,70,70,70c-0.966,0-1.792,0.691-1.963,1.644 c-0.048,0.267-0.296,0.446-0.569,0.405C67.314,72.025,67.16,72,67,72c-1.654,0-3,1.346-3,3s1.346,3,3,3h7.5 c0.276,0,0.5,0.224,0.5,0.5S74.776,79,74.5,79H67c-2.206,0-4-1.794-4-4s1.794-4,4-4c0.059,0,0.116,0.002,0.174,0.006 C67.588,69.82,68.711,69,70,69c0.349,0,0.689,0.061,1.011,0.18C71.176,66.847,73.126,65,75.5,65c1.831,0,3.466,1.127,4.153,2.774 C80.333,67.276,81.155,67,82,67c2.206,0,4,1.794,4,4c0,0.048-0.001,0.095-0.004,0.142C87.739,71.59,89,73.169,89,75 C89,77.206,87.206,79,85,79z"/><path fill="#472b29" d="M79.5,78c-0.159,0-0.841,0-1,0c-0.276,0-0.5,0.224-0.5,0.5c0,0.276,0.224,0.5,0.5,0.5 c0.159,0,0.841,0,1,0c0.276,0,0.5-0.224,0.5-0.5C80,78.224,79.776,78,79.5,78z"/></g><g><path fill="#ea5167" d="M65.749,35.573L45.25,40.968v25.056v1.56c0.003,2.408-2.887,5.478-7.718,7.341 c-5.436,2.095-10.649,1.79-11.643-0.681c-0.994-2.472,2.608-6.173,8.044-8.269c2.503-0.965,4.715-1.254,6.733-1.225l-0.001-0.692 V37.45l29.613-7.759V58.37v1.56c0.003,2.408-3.378,5.539-8.209,7.401c-5.436,2.095-10.649,1.79-11.643-0.681 c-0.994-2.472,2.608-6.173,8.044-8.269c2.503-0.965,5.26-1.579,7.278-1.549l-0.001-0.692V35.573z"/><path fill="#472b29" d="M30.79,77.01c-2.785,0-4.887-0.856-5.55-2.506c-0.329-0.816-0.278-1.765,0.146-2.74 c1.046-2.404,4.225-4.873,8.295-6.442c2.08-0.802,4.144-1.219,6.284-1.269V37.45c0-0.318,0.215-0.597,0.522-0.677l29.612-7.759 c0.209-0.058,0.434-0.011,0.605,0.123c0.172,0.132,0.272,0.337,0.272,0.554v30.239c0.004,2.775-3.556,6.088-8.657,8.054 c-5.881,2.267-11.39,1.796-12.543-1.072c-0.329-0.816-0.278-1.765,0.146-2.74c1.046-2.405,4.225-4.874,8.295-6.443 c2.373-0.914,4.863-1.487,6.829-1.582V36.48L45.95,41.508v26.075c0.005,2.896-3.277,6.109-8.166,7.994 C35.283,76.541,32.85,77.01,30.79,77.01z M40.401,65.448c-2.123,0-4.159,0.387-6.216,1.18c-3.678,1.417-6.627,3.652-7.515,5.694 c-0.275,0.633-0.32,1.191-0.132,1.66c0.729,1.813,5.32,2.379,10.741,0.288c4.776-1.842,7.272-4.758,7.27-6.687V40.968 c0-0.318,0.215-0.596,0.522-0.677l20.499-5.396c0.209-0.058,0.434-0.009,0.605,0.122c0.172,0.133,0.272,0.338,0.272,0.555 l0.001,21.26c0,0.188-0.075,0.367-0.208,0.499c-0.134,0.132-0.283,0.217-0.502,0.202c-1.895-0.013-4.507,0.534-7.017,1.502 c-3.677,1.417-6.627,3.652-7.515,5.695c-0.275,0.633-0.32,1.191-0.132,1.66c0.729,1.813,5.317,2.378,10.74,0.287 c5.045-1.943,7.764-4.926,7.761-6.746V30.599L41.366,37.99l0.001,26.759c0,0.188-0.075,0.367-0.208,0.499 c-0.134,0.132-0.319,0.195-0.502,0.202C40.571,65.448,40.486,65.448,40.401,65.448z"/><path fill="#1f212b" d="M45.417 45.167L62.3 41.083"/><path fill="#472b29" d="M45.417 45.667c-.226 0-.431-.153-.486-.383-.064-.268.101-.538.369-.604l16.883-4.084c.271-.06.539.102.604.369s-.101.538-.369.604l-16.883 4.084C45.495 45.662 45.455 45.667 45.417 45.667zM59.779 65.779c-.114 0-.217-.078-.243-.193-.031-.135.053-.27.187-.3 3.304-.763 6.037-2.413 7.179-3.625.095-.1.252-.104.354-.01.1.095.104.253.01.354-1.191 1.264-4.024 2.982-7.429 3.768C59.816 65.777 59.798 65.779 59.779 65.779zM56.272 66.193c-.6 0-1.19-.037-1.763-.112-.137-.019-.233-.144-.216-.28.018-.138.143-.229.28-.216.698.093 1.428.128 2.165.101.116.007.254.104.259.241.005.139-.104.254-.241.259C56.595 66.19 56.434 66.193 56.272 66.193zM30.625 74.024c-.34 0-.648-.019-.918-.054-.137-.018-.233-.144-.216-.28.018-.138.143-.229.28-.216 1.656.215 4.813-.235 7.853-1.735.123-.061.273-.009.335.114.061.124.01.273-.114.335C35.202 73.491 32.454 74.024 30.625 74.024zM34.773 68.537c-.1 0-.193-.06-.232-.157-.051-.129.012-.274.14-.325 1.331-.53 2.677-.88 4.365-1.135.146-.02.264.073.284.21s-.073.264-.21.284c-1.648.249-2.961.59-4.254 1.105C34.836 68.531 34.805 68.537 34.773 68.537z"/><g><path fill="#472b29" d="M31.458,70.25c-0.083,0-0.164-0.041-0.212-0.117c-0.073-0.117-0.038-0.271,0.079-0.345 c0.512-0.321,1.017-0.613,1.499-0.869c0.122-0.062,0.273-0.019,0.338,0.104s0.019,0.273-0.104,0.338 c-0.472,0.25-0.966,0.536-1.468,0.852C31.55,70.237,31.504,70.25,31.458,70.25z"/></g><g><path fill="#472b29" d="M39.75,71c-0.083,0-0.165-0.042-0.213-0.118c-0.072-0.117-0.036-0.271,0.081-0.345 c1.034-0.641,1.932-1.557,2.183-1.823c0.095-0.101,0.252-0.105,0.354-0.01c0.1,0.095,0.104,0.253,0.01,0.354 c-0.261,0.276-1.196,1.232-2.282,1.905C39.841,70.988,39.795,71,39.75,71z"/></g></g></svg>