<?xml version="1.0" encoding="iso-8859-1"?>
<!-- Generator: Adobe Illustrator 18.0.0, SVG Export Plug-In . SVG Version: 6.00 Build 0)  -->
<!DOCTYPE svg PUBLIC "-//W3C//DTD SVG 1.1//EN" "http://www.w3.org/Graphics/SVG/1.1/DTD/svg11.dtd">
<svg version="1.1" id="Capa_1" xmlns="http://www.w3.org/2000/svg" xmlns:xlink="http://www.w3.org/1999/xlink" x="0px" y="0px"
	 viewBox="0 0 397.879 397.879" style="enable-background:new 0 0 397.879 397.879;" xml:space="preserve">
<g>
	<g>
		<path style="fill:none;" d="M198.939,100.16c6.197,0,11.24-5.043,11.24-11.24V70.852c0-0.004,0-0.008,0-0.01
			c0-0.004,0-0.008,0-0.01v-35.59c0-6.199-5.043-11.242-11.24-11.242c-6.198,0-11.24,5.043-11.24,11.242V88.92
			C187.7,95.117,192.741,100.16,198.939,100.16z"/>
		<path style="fill:none;" d="M26.739,349.197c0,13.609,11.072,24.682,24.682,24.682h295.038c13.609,0,24.682-11.072,24.682-24.682
			V158.59H26.739V349.197z M62.079,193.742h273.721c6.627,0,12,5.373,12,12c0,6.627-5.373,12-12,12H62.079c-6.628,0-12-5.373-12-12
			C50.079,199.115,55.451,193.742,62.079,193.742z M62.079,249.377h273.721c6.627,0,12,5.373,12,12c0,6.627-5.373,12-12,12H62.079
			c-6.628,0-12-5.373-12-12C50.079,254.75,55.451,249.377,62.079,249.377z M62.079,305.012h273.721c6.627,0,12,5.373,12,12
			c0,6.627-5.373,12-12,12H62.079c-6.628,0-12-5.373-12-12C50.079,310.385,55.451,305.012,62.079,305.012z"/>
		<path style="fill:none;" d="M85.319,100.16c6.199,0,11.241-5.043,11.241-11.24V70.861c0-0.008-0.001-0.014-0.001-0.02
			c0-0.008,0.001-0.014,0.001-0.019v-35.58C96.56,29.043,91.518,24,85.319,24c-6.197,0-11.239,5.043-11.239,11.242V88.92
			C74.079,95.117,79.121,100.16,85.319,100.16z"/>
		<path style="fill:#73D0F4;" d="M347.801,88.92c0,19.432-15.809,35.24-35.24,35.24c-19.432,0-35.24-15.809-35.24-35.24v-6.078
			h-43.141v6.078c0,19.432-15.809,35.24-35.24,35.24c-19.431,0-35.24-15.809-35.24-35.24v-6.078h-43.14v6.078
			c0,19.432-15.81,35.24-35.241,35.24c-19.431,0-35.239-15.809-35.239-35.24v-6.078H26.739v51.75H371.14v-51.75h-23.34V88.92z"/>
		<path style="fill:#3D6889;" d="M383.14,58.842h-35.34v-23.6C347.801,15.809,331.992,0,312.56,0
			c-19.432,0-35.24,15.809-35.24,35.242v23.6h-43.141v-23.6C234.179,15.809,218.371,0,198.939,0
			c-19.431,0-35.24,15.809-35.24,35.242v23.6h-43.14v-23.6C120.56,15.809,104.75,0,85.319,0C65.888,0,50.079,15.809,50.079,35.242
			v23.6H14.739c-6.628,0-12,5.373-12,12v278.355c0,26.844,21.838,48.682,48.682,48.682h295.038
			c26.844,0,48.682-21.838,48.682-48.682V70.842C395.14,64.215,389.769,58.842,383.14,58.842z M371.14,134.592H26.739v-51.75h23.341
			v6.078c0,19.432,15.809,35.24,35.239,35.24c19.431,0,35.241-15.809,35.241-35.24v-6.078h43.14v6.078
			c0,19.432,15.809,35.24,35.24,35.24c19.432,0,35.24-15.809,35.24-35.24v-6.078h43.141v6.078c0,19.432,15.809,35.24,35.24,35.24
			c19.432,0,35.24-15.809,35.24-35.24v-6.078h23.34V134.592z M301.32,35.242c0-6.199,5.041-11.242,11.24-11.242
			c6.197,0,11.24,5.043,11.24,11.242V88.92c0,6.197-5.043,11.24-11.24,11.24c-6.199,0-11.24-5.043-11.24-11.24V35.242z
			 M187.7,35.242c0-6.199,5.042-11.242,11.24-11.242c6.197,0,11.24,5.043,11.24,11.242v35.59c0,0.002,0,0.006,0,0.01
			c0,0.002,0,0.006,0,0.01V88.92c0,6.197-5.043,11.24-11.24,11.24c-6.198,0-11.24-5.043-11.24-11.24V35.242z M74.079,35.242
			C74.079,29.043,79.121,24,85.319,24c6.199,0,11.241,5.043,11.241,11.242v35.58c0,0.006-0.001,0.012-0.001,0.019
			c0,0.006,0.001,0.012,0.001,0.02V88.92c0,6.197-5.042,11.24-11.241,11.24c-6.197,0-11.239-5.043-11.239-11.24V35.242z
			 M371.14,349.197c0,13.609-11.072,24.682-24.682,24.682H51.42c-13.609,0-24.682-11.072-24.682-24.682V158.59H371.14V349.197z"/>
		<path style="fill:#3D6889;" d="M62.079,217.742h273.721c6.627,0,12-5.373,12-12c0-6.627-5.373-12-12-12H62.079
			c-6.628,0-12,5.373-12,12C50.079,212.369,55.451,217.742,62.079,217.742z"/>
		<path style="fill:#3D6889;" d="M62.079,273.377h273.721c6.627,0,12-5.373,12-12c0-6.627-5.373-12-12-12H62.079
			c-6.628,0-12,5.373-12,12C50.079,268.004,55.451,273.377,62.079,273.377z"/>
		<path style="fill:#3D6889;" d="M62.079,329.012h273.721c6.627,0,12-5.373,12-12c0-6.627-5.373-12-12-12H62.079
			c-6.628,0-12,5.373-12,12C50.079,323.639,55.451,329.012,62.079,329.012z"/>
	</g>
</g>
<g>
</g>
<g>
</g>
<g>
</g>
<g>
</g>
<g>
</g>
<g>
</g>
<g>
</g>
<g>
</g>
<g>
</g>
<g>
</g>
<g>
</g>
<g>
</g>
<g>
</g>
<g>
</g>
<g>
</g>
</svg>
