<?xml version="1.0" encoding="iso-8859-1"?>
<!-- Generator: Adobe Illustrator 19.0.0, SVG Export Plug-In . SVG Version: 6.00 Build 0)  -->
<svg version="1.1" id="Layer_1" xmlns="http://www.w3.org/2000/svg" xmlns:xlink="http://www.w3.org/1999/xlink" x="0px" y="0px"
	 viewBox="0 0 512 512" style="enable-background:new 0 0 512 512;" xml:space="preserve">
<rect x="31.798" y="262.467" style="fill:#CDD4D5;" width="43.116" height="43.116"/>
<rect x="49.044" y="331.453" style="fill:#687F82;" width="43.116" height="43.116"/>
<rect x="234.442" y="460.8" style="fill:#CDD4D5;" width="43.116" height="43.116"/>
<rect x="152.522" y="447.865" style="fill:#687F82;" width="43.116" height="43.116"/>
<g>
	<rect x="83.537" y="400.438" style="fill:#CDD4D5;" width="43.116" height="43.116"/>
	<rect x="437.086" y="262.467" style="fill:#CDD4D5;" width="43.116" height="43.116"/>
</g>
<g>
	<rect x="419.84" y="331.453" style="fill:#687F82;" width="43.116" height="43.116"/>
	<rect x="316.362" y="447.865" style="fill:#687F82;" width="43.116" height="43.116"/>
</g>
<rect x="385.347" y="400.438" style="fill:#CDD4D5;" width="43.116" height="43.116"/>
<polygon style="fill:#4ACFD9;" points="212.884,8.084 299.116,8.084 286.181,258.156 225.819,258.156 "/>
<polygon style="fill:#9BAAAB;" points="218.682,120.185 225.819,258.156 286.181,258.156 293.318,120.185 "/>
<path style="fill:#FFD1A9;" d="M182.703,288.337c0-40.48,32.817-73.297,73.297-73.297s73.297,32.817,73.297,73.297
	S256,443.554,256,443.554S182.703,328.817,182.703,288.337z"/>
<polygon style="fill:#0295AA;" points="212.884,8.084 225.819,258.156 256,258.156 256,8.084 "/>
<polygon style="fill:#687F82;" points="218.682,120.185 225.819,258.156 256,258.156 256,120.185 "/>
<path style="fill:#FF8C29;" d="M182.703,288.337c0,40.48,73.297,155.217,73.297,155.217V215.04
	C215.52,215.04,182.703,247.857,182.703,288.337z"/>
<g>
	<path style="fill:#FFFFFF;" d="M264.394,373.468c-1.302,0-2.623-0.316-3.848-0.98c-3.925-2.129-5.38-7.036-3.251-10.961
		c6.604-12.174,12.339-23.444,17.042-33.5c1.892-4.043,6.705-5.789,10.748-3.898c4.044,1.892,5.789,6.703,3.898,10.748
		c-4.839,10.345-10.717,21.904-17.475,34.359C270.042,371.936,267.263,373.468,264.394,373.468z"/>
	<path style="fill:#FFFFFF;" d="M290.909,317.981c-0.958,0-1.932-0.171-2.88-0.534c-4.171-1.592-6.264-6.264-4.672-10.435
		c4.964-13.011,5.479-18.279,5.519-18.795c-0.065-18.073-14.788-32.757-32.876-32.757c-4.465,0-8.084-3.62-8.084-8.084
		c0-4.465,3.62-8.084,8.084-8.084c27.043,0,49.044,22.001,49.044,49.044c0,1.687-0.474,8.433-6.581,24.44
		C297.234,316,294.164,317.981,290.909,317.981z"/>
</g>
<path d="M82.998,305.583v-43.116c0-4.465-3.62-8.084-8.084-8.084H31.798c-4.465,0-8.084,3.62-8.084,8.084v43.116
	c0,4.465,3.62,8.084,8.084,8.084h43.116C79.378,313.667,82.998,310.048,82.998,305.583z M66.829,297.499H39.882v-26.947h26.947
	V297.499z"/>
<path d="M100.244,374.568v-43.116c0-4.465-3.62-8.084-8.084-8.084H49.044c-4.465,0-8.084,3.62-8.084,8.084v43.116
	c0,4.465,3.62,8.084,8.084,8.084H92.16C96.625,382.653,100.244,379.033,100.244,374.568z M84.076,366.484H57.128v-26.947h26.947
	V366.484z"/>
<path d="M277.558,452.716h-43.116c-4.465,0-8.084,3.62-8.084,8.084v43.116c0,4.465,3.62,8.084,8.084,8.084h43.116
	c4.465,0,8.084-3.62,8.084-8.084V460.8C285.642,456.335,282.023,452.716,277.558,452.716z M269.474,495.832h-26.947v-26.947h26.947
	V495.832z"/>
<path d="M195.638,439.781h-43.116c-4.465,0-8.084,3.62-8.084,8.084v43.116c0,4.465,3.62,8.084,8.084,8.084h43.116
	c4.465,0,8.084-3.62,8.084-8.084v-43.116C203.722,443.401,200.103,439.781,195.638,439.781z M187.554,482.897h-26.947v-26.947
	h26.947V482.897z"/>
<path d="M126.653,392.354H83.537c-4.465,0-8.084,3.62-8.084,8.084v43.116c0,4.465,3.62,8.084,8.084,8.084h43.116
	c4.465,0,8.084-3.62,8.084-8.084v-43.116C134.737,395.973,131.117,392.354,126.653,392.354z M118.568,435.469H91.621v-26.947h26.947
	V435.469z"/>
<path d="M480.202,254.383h-43.116c-4.465,0-8.084,3.62-8.084,8.084v43.116c0,4.465,3.62,8.084,8.084,8.084h43.116
	c4.465,0,8.084-3.62,8.084-8.084v-43.116C488.286,258.003,484.667,254.383,480.202,254.383z M472.118,297.499h-26.947v-26.947
	h26.947V297.499z"/>
<path d="M462.956,323.368H419.84c-4.465,0-8.084,3.62-8.084,8.084v43.116c0,4.465,3.62,8.084,8.084,8.084h43.116
	c4.465,0,8.084-3.62,8.084-8.084v-43.116C471.04,326.988,467.42,323.368,462.956,323.368z M454.872,366.484h-26.947v-26.947h26.947
	V366.484z"/>
<path d="M359.478,439.781h-43.116c-4.465,0-8.084,3.62-8.084,8.084v43.116c0,4.465,3.62,8.084,8.084,8.084h43.116
	c4.465,0,8.084-3.62,8.084-8.084v-43.116C367.562,443.401,363.943,439.781,359.478,439.781z M351.394,482.897h-26.947v-26.947
	h26.947V482.897z"/>
<path d="M428.463,392.354h-43.116c-4.465,0-8.084,3.62-8.084,8.084v43.116c0,4.465,3.62,8.084,8.084,8.084h43.116
	c4.465,0,8.084-3.62,8.084-8.084v-43.116C436.547,395.973,432.928,392.354,428.463,392.354z M420.379,435.469h-26.947v-26.947
	h26.947V435.469z"/>
<path d="M296.37,217.668L307.189,8.501c0.114-2.213-0.686-4.376-2.212-5.984C303.451,0.91,301.332,0,299.116,0h-86.232
	c-2.216,0-4.336,0.91-5.863,2.517c-1.526,1.607-2.326,3.772-2.212,5.984l10.819,209.167c-25.428,14.483-41.01,41.086-41.01,70.669
	c0,18.151,12.66,50.668,37.628,96.646c18.25,33.608,36.755,62.633,36.941,62.922c1.485,2.325,4.054,3.732,6.812,3.732
	c2.758,0,5.327-1.407,6.812-3.732c0.184-0.289,18.69-29.314,36.939-62.922c24.969-45.979,37.629-78.496,37.629-96.646
	C337.381,258.754,321.799,232.15,296.37,217.668z M231.461,210.722l-4.265-82.452h57.608l-4.265,82.452
	c-7.885-2.5-16.098-3.766-24.538-3.766C247.56,206.956,239.347,208.222,231.461,210.722z M290.603,16.168l-4.963,95.933h-59.281
	l-4.963-95.933H290.603z M256,428.317c-23.011-37.402-65.213-111.819-65.213-139.98c0-25.153,14.056-47.622,36.684-58.653
	c0.017-0.009,0.033-0.016,0.051-0.025c8.916-4.336,18.498-6.536,28.478-6.536c9.98,0,19.562,2.199,28.478,6.536
	c0.016,0.009,0.033,0.016,0.05,0.024c22.629,11.031,36.685,33.501,36.685,58.654C321.213,316.498,279.011,390.915,256,428.317z"/>
<g>
</g>
<g>
</g>
<g>
</g>
<g>
</g>
<g>
</g>
<g>
</g>
<g>
</g>
<g>
</g>
<g>
</g>
<g>
</g>
<g>
</g>
<g>
</g>
<g>
</g>
<g>
</g>
<g>
</g>
</svg>
