<svg xmlns="http://www.w3.org/2000/svg"  viewBox="0 0 100 100" width="50px" height="50px"><path fill="#ee3e54" d="M13 27A2 2 0 1 0 13 31A2 2 0 1 0 13 27Z"/><path fill="#f1bc19" d="M77 12A1 1 0 1 0 77 14A1 1 0 1 0 77 12Z"/><path fill="#fce0a2" d="M50 13A37 37 0 1 0 50 87A37 37 0 1 0 50 13Z"/><path fill="#f1bc19" d="M83 11A4 4 0 1 0 83 19A4 4 0 1 0 83 11Z"/><path fill="#ee3e54" d="M87 22A2 2 0 1 0 87 26A2 2 0 1 0 87 22Z"/><path fill="#fbcd59" d="M81 74A2 2 0 1 0 81 78 2 2 0 1 0 81 74zM15 59A4 4 0 1 0 15 67 4 4 0 1 0 15 59z"/><path fill="#ee3e54" d="M25 85A2 2 0 1 0 25 89A2 2 0 1 0 25 85Z"/><path fill="#fff" d="M18.5 51A2.5 2.5 0 1 0 18.5 56A2.5 2.5 0 1 0 18.5 51Z"/><path fill="#f1bc19" d="M21 66A1 1 0 1 0 21 68A1 1 0 1 0 21 66Z"/><path fill="#fff" d="M80 33A1 1 0 1 0 80 35A1 1 0 1 0 80 33Z"/><g><path fill="#fdfcef" d="M44.206,58.534l-17.538-6.649c-0.297-1.38-0.299-2.858-0.071-4.414l19.063,7.227 c1.059,0.402,1.592,1.586,1.191,2.645v0C46.449,58.402,45.265,58.936,44.206,58.534z"/><path fill="#472b29" d="M44.93,59.167c-0.3,0-0.604-0.053-0.9-0.165h-0.001l-17.791-6.746L26.18,51.99 c-0.296-1.377-0.322-2.922-0.077-4.592l0.091-0.616l19.645,7.448c0.637,0.241,1.142,0.717,1.422,1.339 c0.279,0.621,0.3,1.314,0.059,1.952C46.932,58.539,45.96,59.167,44.93,59.167z M44.384,58.066c0.796,0.304,1.695-0.102,1.999-0.9 c0.147-0.388,0.135-0.809-0.035-1.187s-0.478-0.667-0.864-0.813l-18.47-7.003c-0.128,1.208-0.097,2.332,0.091,3.353L44.384,58.066z"/></g><g><path fill="#00a5a5" d="M50 25.625A24.25 24.25 0 1 0 50 74.125A24.25 24.25 0 1 0 50 25.625Z"/><path fill="#472b29" d="M50,74.825c-13.758,0-24.95-11.192-24.95-24.95S36.242,24.925,50,24.925s24.95,11.192,24.95,24.95 S63.758,74.825,50,74.825z M50,26.325c-12.985,0-23.55,10.564-23.55,23.55S37.015,73.425,50,73.425s23.55-10.564,23.55-23.55 S62.985,26.325,50,26.325z"/></g><g><path fill="#472b29" d="M69.424,44.625c-0.214,0-0.412-0.138-0.478-0.353c-0.089-0.288-0.184-0.572-0.284-0.854 c-0.39-1.089-0.885-2.155-1.47-3.169c-0.139-0.239-0.057-0.545,0.183-0.683c0.239-0.141,0.544-0.057,0.683,0.183 c0.616,1.065,1.136,2.187,1.546,3.331c0.106,0.297,0.205,0.595,0.298,0.896c0.082,0.265-0.066,0.544-0.33,0.625 C69.522,44.618,69.473,44.625,69.424,44.625z"/></g><g><path fill="#472b29" d="M30.04,46.344c-0.034,0-0.067-0.003-0.102-0.01c-0.271-0.056-0.444-0.32-0.39-0.591 C31.525,36.114,40.126,29.125,50,29.125c5.975,0,11.674,2.56,15.636,7.023c0.3,0.337,0.588,0.685,0.865,1.041 c0.17,0.218,0.131,0.531-0.088,0.701c-0.217,0.168-0.531,0.13-0.701-0.088c-0.264-0.339-0.538-0.669-0.823-0.99 c-3.773-4.25-9.199-6.688-14.889-6.688c-9.401,0-17.59,6.653-19.471,15.819C30.48,46.181,30.272,46.344,30.04,46.344z"/></g><g><path fill="#472b29" d="M50,70.75c-8.738,0-16.621-5.496-19.615-13.676c-0.095-0.26,0.038-0.547,0.298-0.642 c0.261-0.093,0.547,0.039,0.642,0.298C34.175,64.518,41.68,69.75,50,69.75c10.959,0,19.875-8.888,19.875-19.813 c0-0.992-0.074-1.992-0.222-2.973c-0.041-0.273,0.146-0.527,0.42-0.568c0.273-0.037,0.527,0.146,0.568,0.42 c0.155,1.029,0.233,2.079,0.233,3.121C70.875,61.413,61.511,70.75,50,70.75z"/></g><g><path fill="#f9e65c" d="M57,36.5c-4.694,0-8.5,3.806-8.5,8.5c0,0.362,0.03,0.717,0.074,1.068l-3.334,4.445 c-3.192,0.137-5.74,2.761-5.74,5.987c0,3.313,2.686,6,6,6s6-2.687,6-6l4.578-3.052C56.381,53.481,56.688,53.5,57,53.5 c4.694,0,8.5-3.806,8.5-8.5S61.694,36.5,57,36.5z"/><path fill="#472b29" d="M45.5,63c-3.584,0-6.5-2.916-6.5-6.5c0-3.407,2.607-6.205,5.979-6.472l3.076-4.101 C48.018,45.588,48,45.289,48,45c0-4.963,4.037-9,9-9s9,4.037,9,9s-4.037,9-9,9c-0.268,0-0.532-0.014-0.793-0.037l-4.213,2.809 C51.852,60.23,48.993,63,45.5,63z M57,37c-4.411,0-8,3.589-8,8c0,0.341,0.029,0.675,0.07,1.006l0.025,0.201l-3.598,4.796 l-0.236,0.011C42.312,51.14,40,53.55,40,56.5c0,3.032,2.468,5.5,5.5,5.5s5.5-2.468,5.5-5.5v-0.268l4.951-3.301l0.18,0.02 C56.416,52.981,56.706,53,57,53c4.411,0,8-3.589,8-8S61.411,37,57,37z"/></g><g><path fill="#00a5a5" d="M57 40.5A4.5 4.5 0 1 0 57 49.5A4.5 4.5 0 1 0 57 40.5Z"/><path fill="#472b29" d="M57,50c-2.757,0-5-2.243-5-5s2.243-5,5-5s5,2.243,5,5S59.757,50,57,50z M57,41c-2.206,0-4,1.794-4,4 s1.794,4,4,4s4-1.794,4-4S59.206,41,57,41z"/></g><g><path fill="#f9e65c" d="M44.206,58.534l-17.664-6.68c-0.125-1.354-0.172-2.827,0.056-4.383l19.063,7.227 c1.059,0.402,1.592,1.586,1.191,2.645v0C46.449,58.402,45.265,58.936,44.206,58.534z"/></g><g><path fill="#472b29" d="M44.93,59.167c-0.3,0-0.604-0.053-0.9-0.165l-18.112-6.847c-0.259-0.098-0.389-0.387-0.291-0.645 c0.099-0.259,0.384-0.39,0.645-0.291l18.112,6.847c0.805,0.305,1.697-0.103,2-0.9c0.147-0.388,0.135-0.809-0.035-1.187 s-0.478-0.667-0.864-0.813l-19.38-7.354c-0.258-0.099-0.388-0.387-0.29-0.646c0.099-0.257,0.387-0.382,0.646-0.29l19.379,7.354 c0.637,0.241,1.142,0.717,1.422,1.339c0.279,0.621,0.3,1.314,0.059,1.952C46.932,58.539,45.96,59.167,44.93,59.167z"/></g></svg>