<?xml version="1.0" encoding="iso-8859-1"?>
<!-- Generator: Adobe Illustrator 19.0.0, SVG Export Plug-In . SVG Version: 6.00 Build 0)  -->
<svg version="1.1" id="Layer_1" xmlns="http://www.w3.org/2000/svg" xmlns:xlink="http://www.w3.org/1999/xlink" x="0px" y="0px"
	 viewBox="0 0 512 512" style="enable-background:new 0 0 512 512;" xml:space="preserve">
<rect x="373.951" y="138.05" style="fill:#6A86AC;" width="56.942" height="105.75"/>
<rect x="373.951" y="268.199" style="fill:#95C11F;" width="56.942" height="105.75"/>
<rect x="373.951" y="373.95" style="fill:#889EBD;" width="56.942" height="130.149"/>
<polygon style="fill:#AACD4C;" points="373.95,504.099 106.343,504.099 105.515,7.901 430.89,7.901 430.89,113.648 373.95,113.648 
	"/>
<rect x="146.184" y="268.199" style="fill:#FFFFFF;" width="65.076" height="195.224"/>
<g>
	<path style="fill:#1D1D1B;" d="M438.791,121.549V0H97.613v512h284.238V381.85h56.941V260.3h-56.941V251.7h56.941V130.15h-56.941
		v-8.601H438.791z M366.048,496.198H113.415V15.802h309.574v89.944h-56.941L366.048,496.198L366.048,496.198z M422.989,276.103
		v89.944h-41.138v-89.944L422.989,276.103L422.989,276.103z M422.989,145.953v89.944h-41.138v-89.944H422.989z"/>
	<polygon style="fill:#1D1D1B;" points="422.989,496.198 390.218,496.198 390.218,512 438.791,512 438.791,390.218 422.989,390.218 
			"/>
	<rect x="73.209" y="24.169" style="fill:#1D1D1B;" width="15.802" height="73.208"/>
	<rect x="73.209" y="121.784" style="fill:#1D1D1B;" width="15.802" height="73.208"/>
	<rect x="73.209" y="219.391" style="fill:#1D1D1B;" width="15.802" height="73.208"/>
	<rect x="73.209" y="317.008" style="fill:#1D1D1B;" width="15.802" height="73.208"/>
	<rect x="73.209" y="414.615" style="fill:#1D1D1B;" width="15.802" height="73.208"/>
	<path style="fill:#1D1D1B;" d="M219.163,471.329h-80.878V260.3h80.878L219.163,471.329L219.163,471.329z M154.089,455.526h49.273
		V276.103h-49.273V455.526z"/>
	<rect x="170.826" y="398.349" style="fill:#1D1D1B;" width="15.802" height="40.671"/>
	<rect x="170.826" y="292.609" style="fill:#1D1D1B;" width="15.802" height="89.478"/>
</g>
<rect x="138.051" y="40.671" style="fill:#FFFFFF;" width="89.479" height="15.802"/>
<g>
</g>
<g>
</g>
<g>
</g>
<g>
</g>
<g>
</g>
<g>
</g>
<g>
</g>
<g>
</g>
<g>
</g>
<g>
</g>
<g>
</g>
<g>
</g>
<g>
</g>
<g>
</g>
<g>
</g>
</svg>
