<?xml version="1.0" encoding="iso-8859-1"?>
<!-- Generator: Adobe Illustrator 19.0.0, SVG Export Plug-In . SVG Version: 6.00 Build 0)  -->
<svg version="1.1" id="Layer_1" xmlns="http://www.w3.org/2000/svg" xmlns:xlink="http://www.w3.org/1999/xlink" x="0px" y="0px"
	 viewBox="0 0 486.944 486.944" style="enable-background:new 0 0 486.944 486.944;" xml:space="preserve">
<g>
	<path style="fill:#FF9478;" d="M2.962,60l29.685,181.689c4.43,27.021,29.348,48.187,56.729,48.187h123.954V60H2.962z"/>
	<path style="fill:#FF7956;" d="M349.553,151.016c14.14,0,27.774,2.201,40.586,6.267L406.085,60H213.329v229.875h1.875
		c-0.048-1.471-0.081-2.947-0.081-4.43C215.123,211.321,275.428,151.016,349.553,151.016z"/>
	<path style="fill:#2488FF;" d="M37.488,433.41c0,29.519,24.016,53.534,53.535,53.534V379.875
		C61.503,379.875,37.488,403.891,37.488,433.41z"/>
	<path style="fill:#2488FF;" d="M301.038,410.813c-3.213,6.87-5.019,14.525-5.019,22.597c0,29.519,24.015,53.534,53.534,53.534
		v-67.069C332.455,419.875,316.095,416.66,301.038,410.813z"/>
	<path style="fill:#005ECE;" d="M91.022,379.875v107.069c29.519,0,53.534-24.015,53.534-53.534S120.541,379.875,91.022,379.875z"/>
	<path style="fill:#005ECE;" d="M349.553,486.944c29.519,0,53.535-24.015,53.535-53.534c0-8.072-1.806-15.726-5.019-22.597
		c-15.057,5.847-31.417,9.062-48.516,9.062V486.944z"/>
	<path style="fill:#2488FF;" d="M57.488,319.875v40h180.178c-8.076-12.101-14.242-25.578-18.066-40H57.488z"/>
	<path style="fill:#2488FF;" d="M449.898,40h31.894V0H415.92l-25.781,157.283c13.534,4.295,26.147,10.676,37.458,18.769L449.898,40z
		"/>
	<path style="fill:#FFDA44;" d="M349.553,379.875v-32.814h-20v-41.616h-41.616v-40h41.616V223.83h20v-72.814
		c-74.125,0-134.43,60.305-134.43,134.43c0,1.483,0.033,2.958,0.081,4.43c0.336,10.334,1.844,20.377,4.396,30
		c3.824,14.422,9.99,27.899,18.066,40c15.275,22.887,37.376,40.843,63.372,50.938c15.057,5.847,31.417,9.062,48.515,9.062V379.875z"
		/>
	<path style="fill:#FFCD00;" d="M483.983,285.446c0-45.048-22.275-84.988-56.386-109.394c-11.311-8.093-23.924-14.473-37.458-18.769
		c-12.812-4.066-26.446-6.267-40.586-6.267v72.814h20v41.616h41.616v40h-41.616v41.616h-20v32.814v40
		c17.099,0,33.458-3.215,48.516-9.062C448.287,391.312,483.983,342.472,483.983,285.446z"/>
	<polygon style="fill:#2488FF;" points="329.553,265.446 287.937,265.446 287.937,305.446 329.553,305.446 329.553,347.062 
		349.553,347.062 369.553,347.062 369.553,305.446 411.169,305.446 411.169,265.446 369.553,265.446 369.553,223.83 349.553,223.83 
		329.553,223.83 	"/>
</g>
<g>
</g>
<g>
</g>
<g>
</g>
<g>
</g>
<g>
</g>
<g>
</g>
<g>
</g>
<g>
</g>
<g>
</g>
<g>
</g>
<g>
</g>
<g>
</g>
<g>
</g>
<g>
</g>
<g>
</g>
</svg>
